<svg width="26" height="26" viewBox="0 0 26 26" fill="none" xmlns="http://www.w3.org/2000/svg">
<g id="la:telegram-plane">
<path id="Vector" d="M21.1818 3.24678C20.921 3.26576 20.665 3.32695 20.4238 3.42797H20.4205C20.1889 3.51978 19.088 3.98291 17.4143 4.68491L11.4164 7.21097C7.11257 9.02284 2.88188 10.8071 2.88188 10.8071L2.93226 10.7876C2.93226 10.7876 2.64057 10.8835 2.33588 11.0923C2.14765 11.2121 1.98567 11.3688 1.85976 11.553C1.71026 11.7723 1.59001 12.1079 1.63469 12.4548C1.70782 13.0415 2.08807 13.3933 2.36107 13.5875C2.63732 13.7841 2.90057 13.8759 2.90057 13.8759H2.90707L6.87451 15.2125C7.05244 15.7837 8.08351 19.1734 8.33132 19.9542C8.47757 20.4206 8.61976 20.7123 8.79769 20.9349C8.88382 21.0487 8.98457 21.1437 9.10563 21.2201C9.16857 21.2567 9.23567 21.2856 9.30551 21.3062L9.26488 21.2965C9.27707 21.2997 9.28682 21.3095 9.29576 21.3127C9.32826 21.3217 9.35019 21.3249 9.39163 21.3314C10.0197 21.5215 10.5243 21.1315 10.5243 21.1315L10.5527 21.1088L12.8951 18.976L16.8211 21.9879L16.9105 22.0261C17.7287 22.3852 18.5574 22.1853 18.9954 21.8327C19.4366 21.4777 19.608 21.0235 19.608 21.0235L19.6364 20.9503L22.6703 5.40803C22.7564 5.02453 22.7784 4.66541 22.6833 4.31684C22.5853 3.96408 22.3589 3.66067 22.0488 3.46616C21.7883 3.30781 21.4863 3.23138 21.1818 3.24678ZM21.0998 4.91241C21.0965 4.96359 21.1063 4.95791 21.0835 5.05622V5.06516L18.0781 20.4458C18.0651 20.4677 18.0431 20.5157 17.983 20.5636C17.9196 20.614 17.8693 20.6457 17.6052 20.5408L12.8033 16.8594L9.90269 19.5033L10.5121 15.6114L18.3576 8.29891C18.6809 7.99828 18.5729 7.93491 18.5729 7.93491C18.5956 7.56603 18.0846 7.82684 18.0846 7.82684L8.19157 13.9555L8.18832 13.9393L3.44657 12.3427V12.3395L3.43438 12.337C3.44269 12.3343 3.45083 12.331 3.45876 12.3273L3.48476 12.3143L3.50994 12.3053C3.50994 12.3053 7.74388 10.5211 12.0477 8.70922C14.2024 7.80166 16.3734 6.88759 18.0431 6.18234C19.7128 5.48116 20.947 4.96684 21.0169 4.93922C21.0835 4.91322 21.0518 4.91322 21.0998 4.91322V4.91241Z" fill="white"/>
</g>
</svg>
